<svg xmlns="http://www.w3.org/2000/svg" width="123" height="24" viewBox="0 0 123 24"><path fill="#4A1EA6" fill-rule="evenodd" d="M78.676 13.466v2.384c0 .808-.664 1.472-1.474 1.472a1.479 1.479 0 01-1.473-1.472v-2.384h-2.45a1.434 1.434 0 01-1.431-1.43c0-.788.643-1.43 1.432-1.43h2.449V8.222c0-.808.664-1.472 1.473-1.472.81 0 1.474.664 1.474 1.472v2.384h2.45c.788 0 1.43.642 1.43 1.43 0 .787-.642 1.43-1.43 1.43h-2.45zM85.284 8.2c-1.202-2.572-3.5-4.375-6.304-4.945-.49-.093-1.08-.153-1.689-.17-4.192.065-7.662 2.813-8.641 6.846-.555 2.275-.124 4.741 1.182 6.77 1.307 2.03 3.376 3.445 5.677 3.886 2.066.395 4.02.12 5.838-.822l.08-.04c.404-.18.819-.229 1.295-.141l.114.025c.906.238 1.81.475 2.716.711-.234-.852-.467-1.695-.704-2.53l-.021-.085a2.112 2.112 0 01.225-1.568 8.752 8.752 0 00.232-7.937zm3.651 15.177a1.577 1.577 0 01-1.268.623c-.236 0-.424-.05-.574-.09l-1.451-.378-3.238-.847a11.695 11.695 0 01-5.084 1.163c-.784 0-1.588-.078-2.392-.232-3.128-.598-5.932-2.51-7.694-5.247-1.76-2.736-2.339-6.076-1.586-9.166C66.967 3.77 71.642.071 77.282 0h.059c.796.021 1.548.098 2.235.228C83.37 1 86.464 3.43 88.084 6.896a11.812 11.812 0 01-.162 10.414c.416 1.481.824 2.98 1.24 4.51.068.246.257.922-.227 1.557zm30.701-10.209c0-2.582-1.862-4.72-4.502-4.72-2.697 0-4.42 2.11-4.42 4.664v.056c0 2.554 1.862 4.692 4.475 4.692 2.724 0 4.447-2.11 4.447-4.636v-.056zm-4.502 7.634c-4.476 0-7.784-3.415-7.784-7.578v-.056c0-4.192 3.336-7.662 7.839-7.662S123 8.921 123 13.112v.056c0 4.164-3.335 7.634-7.866 7.634zm-11.944-.194c-.918 0-1.696-.722-1.696-1.666v-.75c-.945 1.389-2.307 2.582-4.586 2.582-3.308 0-5.226-2.22-5.226-5.635v-7.8c0-.944.75-1.694 1.668-1.694.945 0 1.696.75 1.696 1.693v6.802c0 2.276 1.139 3.553 3.14 3.553 1.946 0 3.308-1.332 3.308-3.61V7.339c0-.943.75-1.693 1.696-1.693.917 0 1.695.75 1.695 1.693v11.604c0 .916-.75 1.666-1.695 1.666zM60.623 5.645c.945 0 1.696.75 1.696 1.693v11.604c0 .944-.75 1.666-1.696 1.666a1.655 1.655 0 01-1.668-1.666V7.338c0-.943.723-1.693 1.668-1.693zm0-1.943c-1.084 0-1.918-.667-1.918-1.666V1.87c0-1 .834-1.638 1.918-1.638S62.54.87 62.54 1.87v.166c0 1-.834 1.666-1.918 1.666zm-8.47 9.41c0-2.831-2-4.691-4.252-4.691-2.307 0-4.225 1.776-4.225 4.691v.056c0 2.832 1.946 4.692 4.225 4.692 2.251 0 4.253-1.889 4.253-4.692v-.056zm1.641 7.496c-.945 0-1.696-.722-1.696-1.666v-.916c-1.084 1.527-2.613 2.748-5.003 2.748-3.447 0-6.81-2.748-6.81-7.606v-.056c0-4.858 3.307-7.606 6.81-7.606 2.418 0 3.947 1.194 5.003 2.582V1.73c0-.944.75-1.666 1.668-1.666.945 0 1.696.722 1.696 1.666v17.211c0 .944-.75 1.666-1.668 1.666zM31.51 8.254c-2.057 0-3.502 1.582-3.808 3.86h7.533c-.223-2.166-1.501-3.86-3.725-3.86zm5.42 6.08h-9.2c.36 2.388 2.057 3.72 4.225 3.72 1.417 0 2.53-.5 3.474-1.277.25-.195.473-.306.862-.306.75 0 1.334.584 1.334 1.36 0 .417-.194.778-.445 1.028-1.334 1.193-3.001 1.943-5.28 1.943-4.254 0-7.534-3.082-7.534-7.606v-.056c0-4.192 2.975-7.634 7.172-7.634 4.67 0 6.977 3.831 6.977 7.218 0 .944-.723 1.61-1.585 1.61zm-16.277 6.274c-.945 0-1.696-.722-1.696-1.666v-6.801c0-2.332-1.084-3.581-2.974-3.581-1.835 0-3.14 1.276-3.14 3.636v6.746c0 .944-.751 1.666-1.669 1.666-.945 0-1.695-.722-1.695-1.666v-6.829c0-2.277-1.112-3.553-2.975-3.553-1.862 0-3.14 1.388-3.14 3.636v6.746c0 .944-.75 1.666-1.696 1.666A1.654 1.654 0 010 18.942V7.338c0-.943.723-1.693 1.668-1.693s1.696.75 1.696 1.693v.694c.945-1.304 2.223-2.526 4.475-2.526 2.112 0 3.613 1.027 4.392 2.582 1.167-1.555 2.724-2.582 4.947-2.582 3.197 0 5.143 2.027 5.143 5.608v7.828c0 .944-.723 1.666-1.668 1.666z"/></svg>